<svg width="12" height="12" viewBox="0 0 12 12" fill="none" xmlns="http://www.w3.org/2000/svg">
<path d="M8.80001 7.2C7.99999 7.99999 7.99999 8.79998 7.2 8.79998C6.40001 8.79998 5.59999 7.99999 4.8 7.2C4.00001 6.39998 3.19999 5.59999 3.19999 4.8C3.19999 4.00001 3.99998 4.00001 4.8 3.19999C5.60002 2.39998 3.19999 0 2.4 0C1.60001 0 0 2.4 0 2.4C0 4.00001 1.64376 7.24375 3.19999 8.80001C4.75622 10.3563 7.99999 12 9.6 12C9.6 12 12 10.4 12 9.6C12 8.80001 9.6 6.40001 8.80001 7.2Z" fill="#D9B16C"/>
</svg>
